<?xml version="1.0" encoding="utf-8"?>
<!-- Generator: Adobe Illustrator 13.0.0, SVG Export Plug-In  -->
<!DOCTYPE svg PUBLIC "-//W3C//DTD SVG 1.1//EN" "http://www.w3.org/Graphics/SVG/1.1/DTD/svg11.dtd" [
	<!ENTITY ns_flows "http://ns.adobe.com/Flows/1.0/">
]>
<svg version="1.1"
	 xmlns="http://www.w3.org/2000/svg" xmlns:xlink="http://www.w3.org/1999/xlink" xmlns:a="http://ns.adobe.com/AdobeSVGViewerExtensions/3.0/"
	 x="0px" y="0px" width="420px" height="96px" viewBox="-39.98 -0.882 420 96" enable-background="new -39.98 -0.882 420 96"
	 xml:space="preserve">
<defs>
</defs>
<path fill-rule="evenodd" clip-rule="evenodd" fill="#EF4D7C" d="M67.889,91.743c-0.094-8.801-0.082-16.619-0.013-24.512
	l28.909,0.019c-0.026,3.452,0.026,8.61-0.019,12.258c-0.022,1.879,2.243,2.563,3.718,2.347c1.452-0.214,2.45-0.696,2.512-2.363
	c0.151-4.043,0.006-8.167,0.031-12.224l28.628-0.051c0.029,4.143,0.039,9.575,0.002,12.294c-0.021,1.577,1.939,2.337,3.146,2.343
	c2.047,0.012,3.077-0.883,3.117-2.35c0.113-4.086,0.014-8.173,0.014-12.26l28.949-0.013c0.135,8.118,0.084,16.382,0.011,24.513
	c-0.029,3.263,6.317,3.131,6.219-0.004c-0.254-7.998-0.069-16.457-0.008-24.482l28.628-0.04c0.063,3.902-0.063,7.762-0.008,12.29
	c0.038,3.209,6.251,3.165,6.24,0.011c-0.025-7.24-0.019-8.592,0.014-12.29l29.113,0.003c0.007,3.389,0.008,9.089,0.014,12.291
	c0.007,3.146,6.229,3.176,6.234-0.01c0.006-3.52,0.004-9.31,0.006-12.281l28.471-0.013c0.014,2.061,0.016,20.515,0.023,24.328
	c0,1.874,1.422,2.754,3.104,2.757c1.638,0.052,3.092-0.917,3.092-2.638c-0.007-3.391,0.014-22.505-0.016-24.443l28.911,0.009
	c-0.03,1.226-0.021,10.568-0.021,12.267c0,1.38,1.535,2.393,2.886,2.39c2.178-0.007,3.308-0.86,3.336-2.354l0.046-12.302
	c8.013,0,15.886,0,23.898,0c4.167,0.024,4.047-6.256,0.003-6.208l-334-0.017c-4.106-0.021-4.104,6.165-0.002,6.225
	c7.908,0.114,15.845-0.172,23.721-0.045c0,7.612-0.007,9.546-0.008,12.337c0,3.072,6.217,3.218,6.232-0.022
	c0.015-3.094,0.027-6.218,0.048-12.247l28.56,0.062c0.029,2.04-0.038,18.445,0.005,24.439
	C61.658,94.838,67.925,95.048,67.889,91.743z"/>
<path fill-rule="evenodd" clip-rule="evenodd" fill="#EF4D7C" d="M189.01,18.347l3.358,19.688l8.429-0.009
	c-0.329-3.393-5.998-36.747-6.51-37.735l-7.958,0.011c-0.761,3.191-4.28,12.745-5.719,17.029l-1.445,4.327
	c-0.229,0.601-0.38,0.979-0.82,1.306l-7.515-22.668L162.602,0.3l-6.507,37.732c2.023,0.013,6.861,0.284,8.539-0.189
	c0.553-3.398,2.486-17.129,3.508-19.088c0.829,1.236,6.011,16.987,6.603,19.282l7.422-0.023L189.01,18.347z"/>
<path fill-rule="evenodd" clip-rule="evenodd" fill="#EF4D7C" d="M211.766,19.606c0.849-1.86,2.865-3.258,5.931-3.202
	c2.347,0.043,4.886,1.362,5.574,3.229L211.766,19.606L211.766,19.606z M232.248,26.668c1.532-8.879-4.24-15.663-10.912-17.245
	c-19.65-4.658-25.459,22.092-10.16,28.106c8.649,3.399,16.775-0.46,19.783-5.849c-1.295-0.777-5.702-2.923-7.188-3.348
	c-5.235,4.861-11.567,2.734-12.707-1.658L232.248,26.668z"/>
<path fill-rule="evenodd" clip-rule="evenodd" fill="#EF4D7C" d="M259.232,19.565c2.51-4.316,9.716-4.177,11.524,0.078
	L259.232,19.565L259.232,19.565z M279.833,26.565c2.157-20.069-23.81-23.448-29.077-7.793c-2.918,8.67,1.906,16.272,7.875,18.731
	c8.109,3.341,17.197-0.432,19.834-5.914l-6.954-3.212c-2.213,1.167-2.986,2.997-7.3,2.661c-3.007-0.233-4.983-1.843-5.618-4.368
	L279.833,26.565z"/>
<path fill-rule="evenodd" clip-rule="evenodd" fill="#EF4D7C" d="M75.294,26.449c-1.8-11.023,12.938-12.577,14.396-3.312
	C91.486,34.551,76.83,35.858,75.294,26.449L75.294,26.449z M89.432,14.222c-2.051-1.171-3.016-2.66-6.482-3.198
	c-14.497-2.253-20.046,19.028-7.67,26.209c7.448,4.32,12.321-0.729,14.19-1.624l0.133,2.545l6.407,0.009
	c0.607-1.984,0.285-22.938,0.199-26.626l-6.668,0.151L89.432,14.222z"/>
<path fill-rule="evenodd" clip-rule="evenodd" fill="#EF4D7C" d="M57.443,11.445c1.568-1.057,3.339-3.268,4.9-4.135
	c-0.655-1.54-3.789-4.188-5.877-5.086C46.949-1.866,37.831,7.835,44.113,16.1c1.512,1.99,3.578,3.824,5.526,5.417
	c1.624,1.328,4.5,3.596,5.607,5.041c4.262,5.563-5.506,9.354-8.977,1.343c-1.053,0.295-5.085,2.729-5.805,3.413
	c4.437,13.055,26.843,8.411,22.11-5.708c-1.899-5.666-12.031-11.364-13.379-14c-0.851-1.664-0.035-3.116,1.433-3.566
	C53.947,7.022,56.08,10.165,57.443,11.445z"/>
<polygon fill-rule="evenodd" clip-rule="evenodd" fill="#EF4D7C" points="233.614,17.184 236.867,17.219 236.884,38.032 
	245.375,38.014 245.386,17.207 249.326,17.177 249.342,9.661 245.393,9.628 245.354,0 236.878,0.035 236.781,9.647 233.411,9.656 
	"/>
<path fill-rule="evenodd" clip-rule="evenodd" fill="#EF4D7C" d="M144.732,19.239c1.14-0.72,3.432-2.89,3.993-4.039
	c-3.366-5.543-15.151-6.213-17.167,1.404c-1.174,4.434,1.931,7.339,4.162,8.824c2.473,1.646,7.603,2.748,7.139,6.208
	c-2.597,2.753-6.854,0.092-8.378-1.697c-0.642,0.511-3.671,3.673-4.014,4.414c3.52,5.608,15.52,6.493,18.342-0.785
	c4.297-11.086-12.904-11.832-10.868-15.701C139.73,15.228,143.4,18.422,144.732,19.239z"/>
<path fill-rule="evenodd" clip-rule="evenodd" fill="#EF4D7C" d="M298.015,10.713c-4.334-1.595-5.487-1.804-8.4,0.299l0.001-1.171
	l-7.629,0.005l0.007,28.161l8.453,0.018c0.071-3.931,0.036-7.944,0.006-11.879c-0.041-5.386-0.821-10.104,5.325-8.775
	L298.015,10.713z"/>
<polygon fill-rule="evenodd" clip-rule="evenodd" fill="#EF4D7C" points="101.175,17.299 104.569,17.346 104.735,38.167 
	111.278,38.163 111.306,17.316 115.268,17.298 115.26,11.556 111.295,11.534 111.278,1.757 104.58,1.769 104.562,11.534 
	101.125,11.558 "/>
<polygon fill-rule="evenodd" clip-rule="evenodd" fill="#EF4D7C" points="119.029,38.167 125.793,38.161 125.622,11.552 
	118.87,11.567 "/>
<path fill-rule="evenodd" clip-rule="evenodd" fill="#EF4D7C" d="M121.07,0.84c-5.634,1.729-2.918,9.844,2.573,8.179
	C128.53,7.536,126.768-0.907,121.07,0.84z"/>
</svg>
