<?xml version="1.0" encoding="utf-8"?>
<!-- Generator: Adobe Illustrator 13.0.0, SVG Export Plug-In  -->
<!DOCTYPE svg PUBLIC "-//W3C//DTD SVG 1.1//EN" "http://www.w3.org/Graphics/SVG/1.1/DTD/svg11.dtd" [
	<!ENTITY ns_flows "http://ns.adobe.com/Flows/1.0/">
]>
<svg version="1.1"
	 xmlns="http://www.w3.org/2000/svg" xmlns:xlink="http://www.w3.org/1999/xlink" xmlns:a="http://ns.adobe.com/AdobeSVGViewerExtensions/3.0/"
	 x="0px" y="0px" width="420px" height="96px" viewBox="87.579 91.322 420 96" enable-background="new 87.579 91.322 420 96"
	 xml:space="preserve">
<defs>
</defs>
<path fill-rule="evenodd" clip-rule="evenodd" fill="#FFFFFF" d="M195.448,183.467c-0.094-8.801-0.082-16.619-0.013-24.512
	l28.909,0.019c-0.026,3.452,0.026,8.61-0.019,12.258c-0.022,1.879,2.243,2.563,3.718,2.347c1.452-0.214,2.45-0.696,2.512-2.363
	c0.151-4.043,0.006-8.167,0.031-12.224l28.628-0.051c0.029,4.143,0.039,9.575,0.002,12.294c-0.021,1.577,1.939,2.337,3.146,2.343
	c2.047,0.012,3.077-0.883,3.117-2.35c0.113-4.086,0.014-8.173,0.014-12.26l28.949-0.013c0.135,8.119,0.084,16.382,0.011,24.513
	c-0.029,3.263,6.317,3.131,6.219-0.004c-0.254-7.998-0.069-16.457-0.008-24.482l28.628-0.04c0.063,3.902-0.063,7.762-0.008,12.29
	c0.038,3.209,6.251,3.165,6.24,0.011c-0.025-7.24-0.019-8.592,0.014-12.29l29.113,0.003c0.007,3.389,0.008,9.089,0.014,12.291
	c0.007,3.146,6.229,3.176,6.234-0.01c0.006-3.52,0.004-9.31,0.006-12.281l28.471-0.013c0.014,2.061,0.016,20.515,0.023,24.328
	c0,1.874,1.422,2.754,3.104,2.757c1.638,0.052,3.092-0.917,3.092-2.638c-0.007-3.391,0.014-22.505-0.016-24.443l28.911,0.009
	c-0.03,1.226-0.021,10.568-0.021,12.267c0,1.38,1.535,2.393,2.886,2.39c2.178-0.007,3.308-0.86,3.336-2.354l0.046-12.302
	c8.013,0,15.886,0,23.898,0c4.167,0.024,4.047-6.256,0.003-6.208l-334-0.017c-4.106-0.021-4.104,6.165-0.002,6.225
	c7.908,0.115,15.845-0.172,23.721-0.045c0,7.612-0.007,9.546-0.008,12.337c0,3.072,6.217,3.218,6.232-0.021
	c0.015-3.095,0.027-6.219,0.048-12.248l28.56,0.062c0.029,2.04-0.038,18.445,0.005,24.439
	C189.217,186.562,195.484,186.772,195.448,183.467z"/>
<path fill-rule="evenodd" clip-rule="evenodd" fill="#FFFFFF" d="M316.569,110.071l3.358,19.688l8.429-0.008
	c-0.329-3.393-5.998-36.748-6.51-37.736l-7.958,0.011c-0.761,3.191-4.28,12.745-5.719,17.028l-1.445,4.328
	c-0.229,0.601-0.38,0.979-0.82,1.306L298.39,92.02l-8.229,0.004l-6.507,37.732c2.023,0.012,6.861,0.283,8.539-0.19
	c0.553-3.398,2.486-17.129,3.508-19.088c0.829,1.237,6.011,16.988,6.603,19.283l7.422-0.023L316.569,110.071z"/>
<path fill-rule="evenodd" clip-rule="evenodd" fill="#FFFFFF" d="M339.325,111.331c0.849-1.86,2.865-3.258,5.931-3.203
	c2.347,0.043,4.886,1.363,5.574,3.229L339.325,111.331L339.325,111.331z M359.807,118.392c1.532-8.878-4.24-15.663-10.912-17.245
	c-19.65-4.658-25.459,22.092-10.16,28.106c8.649,3.4,16.775-0.459,19.783-5.849c-1.295-0.777-5.702-2.922-7.188-3.348
	c-5.235,4.861-11.567,2.734-12.707-1.659L359.807,118.392z"/>
<path fill-rule="evenodd" clip-rule="evenodd" fill="#FFFFFF" d="M386.791,111.29c2.51-4.317,9.716-4.177,11.524,0.078
	L386.791,111.29L386.791,111.29z M407.392,118.29c2.157-20.07-23.81-23.449-29.077-7.794c-2.918,8.67,1.906,16.273,7.875,18.732
	c8.109,3.341,17.197-0.432,19.834-5.914l-6.954-3.213c-2.213,1.167-2.986,2.998-7.3,2.662c-3.007-0.234-4.983-1.843-5.618-4.369
	L407.392,118.29z"/>
<path fill-rule="evenodd" clip-rule="evenodd" fill="#FFFFFF" d="M202.853,118.173c-1.8-11.023,12.938-12.577,14.396-3.311
	C219.045,126.275,204.389,127.583,202.853,118.173L202.853,118.173z M216.991,105.946c-2.051-1.171-3.016-2.66-6.482-3.199
	c-14.497-2.252-20.046,19.029-7.67,26.209c7.448,4.321,12.321-0.728,14.19-1.623l0.133,2.544l6.407,0.009
	c0.607-1.984,0.285-22.938,0.199-26.626l-6.668,0.152L216.991,105.946z"/>
<path fill-rule="evenodd" clip-rule="evenodd" fill="#FFFFFF" d="M185.002,103.169c1.568-1.056,3.339-3.268,4.9-4.134
	c-0.655-1.541-3.789-4.189-5.877-5.087c-9.518-4.09-18.635,5.61-12.353,13.876c1.512,1.989,3.578,3.824,5.526,5.417
	c1.624,1.328,4.5,3.596,5.607,5.041c4.262,5.563-5.506,9.354-8.977,1.343c-1.053,0.294-5.085,2.728-5.805,3.413
	c4.437,13.054,26.843,8.411,22.11-5.708c-1.899-5.667-12.031-11.365-13.379-14c-0.851-1.665-0.035-3.116,1.433-3.566
	C181.506,98.747,183.639,101.889,185.002,103.169z"/>
<polygon fill-rule="evenodd" clip-rule="evenodd" fill="#FFFFFF" points="361.173,108.907 364.426,108.942 364.443,129.757 
	372.934,129.737 372.945,108.931 376.885,108.901 376.901,101.386 372.952,101.352 372.913,91.724 364.438,91.76 364.34,101.371 
	360.97,101.38 "/>
<path fill-rule="evenodd" clip-rule="evenodd" fill="#FFFFFF" d="M272.291,110.963c1.14-0.719,3.432-2.889,3.993-4.039
	c-3.366-5.543-15.151-6.213-17.167,1.404c-1.174,4.434,1.931,7.339,4.162,8.824c2.473,1.647,7.603,2.749,7.139,6.208
	c-2.597,2.752-6.854,0.091-8.378-1.697c-0.642,0.511-3.671,3.673-4.014,4.414c3.52,5.609,15.52,6.494,18.342-0.786
	c4.297-11.085-12.904-11.832-10.868-15.701C267.289,106.952,270.959,110.146,272.291,110.963z"/>
<path fill-rule="evenodd" clip-rule="evenodd" fill="#FFFFFF" d="M425.574,102.438c-4.334-1.595-5.487-1.804-8.4,0.298l0.001-1.171
	l-7.629,0.005l0.007,28.161l8.453,0.018c0.071-3.931,0.036-7.944,0.006-11.879c-0.041-5.386-0.821-10.104,5.325-8.776
	L425.574,102.438z"/>
<polygon fill-rule="evenodd" clip-rule="evenodd" fill="#FFFFFF" points="228.734,109.022 232.128,109.07 232.294,129.891 
	238.837,129.887 238.865,109.041 242.827,109.022 242.819,103.28 238.854,103.259 238.837,93.481 232.139,93.493 232.121,103.258 
	228.685,103.282 "/>
<polygon fill-rule="evenodd" clip-rule="evenodd" fill="#FFFFFF" points="246.588,129.891 253.353,129.885 253.181,103.275 
	246.429,103.292 "/>
<path fill-rule="evenodd" clip-rule="evenodd" fill="#FFFFFF" d="M248.629,92.564c-5.634,1.729-2.918,9.844,2.573,8.178
	C256.089,99.26,254.327,90.817,248.629,92.564z"/>
</svg>
