<?xml version="1.0" encoding="utf-8"?>
<!-- Generator: Adobe Illustrator 13.0.0, SVG Export Plug-In . SVG Version: 6.00 Build 14948)  -->
<!DOCTYPE svg PUBLIC "-//W3C//DTD SVG 1.1//EN" "http://www.w3.org/Graphics/SVG/1.1/DTD/svg11.dtd" [
	<!ENTITY ns_extend "http://ns.adobe.com/Extensibility/1.0/">
	<!ENTITY ns_ai "http://ns.adobe.com/AdobeIllustrator/10.0/">
	<!ENTITY ns_graphs "http://ns.adobe.com/Graphs/1.0/">
	<!ENTITY ns_vars "http://ns.adobe.com/Variables/1.0/">
	<!ENTITY ns_imrep "http://ns.adobe.com/ImageReplacement/1.0/">
	<!ENTITY ns_sfw "http://ns.adobe.com/SaveForWeb/1.0/">
	<!ENTITY ns_custom "http://ns.adobe.com/GenericCustomNamespace/1.0/">
	<!ENTITY ns_adobe_xpath "http://ns.adobe.com/XPath/1.0/">
]>
<svg version="1.1" id="Layer_1" xmlns:x="&ns_extend;" xmlns:i="&ns_ai;" xmlns:graph="&ns_graphs;"
	 xmlns="http://www.w3.org/2000/svg" xmlns:xlink="http://www.w3.org/1999/xlink" x="0px" y="0px" width="340.667px"
	 height="94.795px" viewBox="-40.146 -1.177 340.667 94.795" enable-background="new -40.146 -1.177 340.667 94.795"
	 xml:space="preserve">
<metadata>
	<sfw  xmlns="&ns_sfw;">
		<slices></slices>
		<sliceSourceBounds  y="349.193" x="96.5" width="340.157" height="94.307" bottomLeftOrigin="true"></sliceSourceBounds>
	</sfw>
</metadata>
<path fill="#EF4D7C" d="M67.889,91.743c-0.094-8.802-0.082-16.619-0.013-24.513l28.909,0.02c-0.026,3.452,0.025,8.609-0.02,12.258
	c-0.021,1.879,2.243,2.563,3.718,2.348c1.452-0.215,2.45-0.696,2.513-2.363c0.15-4.043,0.006-8.167,0.03-12.225l28.628-0.051
	c0.029,4.143,0.039,9.575,0.003,12.295c-0.021,1.576,1.938,2.336,3.146,2.342c2.047,0.012,3.077-0.883,3.117-2.35
	c0.113-4.086,0.014-8.173,0.014-12.26l28.949-0.014c0.135,8.119,0.084,16.383,0.011,24.514c-0.028,3.263,6.317,3.131,6.219-0.004
	c-0.254-7.998-0.068-16.457-0.008-24.482l28.628-0.039c0.063,3.901-0.063,7.762-0.008,12.289c0.038,3.209,6.251,3.165,6.24,0.012
	c-0.025-7.24-0.02-8.592,0.014-12.291l29.113,0.004c0.007,3.389,0.008,9.088,0.014,12.291c0.008,3.146,6.229,3.176,6.234-0.01
	c0.006-3.521,0.004-9.311,0.006-12.281l28.471-0.014c0.015,2.061,0.017,20.516,0.023,24.328c0,1.874,1.422,2.754,3.104,2.758
	c1.639,0.051,3.093-0.918,3.093-2.639c-0.007-3.391,0.014-22.505-0.017-24.443l28.911,0.01c-0.03,1.226-0.021,10.567-0.021,12.267
	c0,1.38,1.535,2.394,2.887,2.39c2.178-0.007,3.308-0.859,3.336-2.354l0.046-12.303c8.013,0,15.886,0,23.897,0
	c4.167,0.024,4.048-6.256,0.003-6.207L3.079,61.008c-4.106-0.021-4.104,6.165-0.002,6.225c7.907,0.115,15.845-0.172,23.721-0.045
	c0,7.612-0.007,9.547-0.008,12.338c0,3.072,6.217,3.218,6.231-0.022c0.016-3.094,0.027-6.218,0.049-12.247l28.56,0.063
	c0.029,2.039-0.038,18.445,0.005,24.438C61.658,94.838,67.925,95.048,67.889,91.743z"/>
<path fill="#EF4D7C" d="M189.01,18.347l3.358,19.688l8.429-0.009c-0.329-3.393-5.998-36.747-6.51-37.735l-7.958,0.011
	c-0.762,3.191-4.28,12.745-5.72,17.029l-1.444,4.327c-0.229,0.601-0.38,0.979-0.82,1.306L170.83,0.296L162.602,0.3l-6.507,37.732
	c2.023,0.013,6.861,0.284,8.539-0.188c0.553-3.398,2.486-17.129,3.508-19.088c0.829,1.236,6.011,16.987,6.604,19.282l7.422-0.023
	L189.01,18.347z"/>
<path fill="#EF4D7C" d="M211.766,19.606c0.85-1.86,2.865-3.258,5.931-3.202c2.348,0.043,4.887,1.362,5.574,3.229L211.766,19.606
	L211.766,19.606z M232.248,26.668c1.531-8.879-4.24-15.663-10.912-17.245c-19.65-4.658-25.459,22.092-10.16,28.106
	c8.649,3.399,16.775-0.46,19.783-5.849c-1.295-0.777-5.702-2.923-7.188-3.348c-5.234,4.861-11.566,2.734-12.707-1.658
	L232.248,26.668z"/>
<path fill="#EF4D7C" d="M259.232,19.565c2.511-4.316,9.716-4.177,11.524,0.078L259.232,19.565L259.232,19.565z M279.833,26.565
	c2.157-20.069-23.811-23.448-29.077-7.793c-2.918,8.67,1.906,16.272,7.875,18.731c8.109,3.341,17.197-0.432,19.834-5.914
	l-6.954-3.212c-2.213,1.167-2.986,2.997-7.3,2.661c-3.007-0.233-4.983-1.843-5.618-4.368L279.833,26.565z"/>
<path fill="#EF4D7C" d="M75.294,26.449c-1.8-11.022,12.938-12.577,14.396-3.312C91.486,34.551,76.83,35.858,75.294,26.449
	L75.294,26.449z M89.432,14.222c-2.051-1.171-3.016-2.66-6.481-3.198C68.453,8.771,62.904,30.052,75.28,37.233
	c7.448,4.32,12.321-0.729,14.19-1.624l0.133,2.545l6.407,0.009c0.607-1.984,0.285-22.938,0.199-26.626l-6.668,0.151L89.432,14.222z"
	/>
<path fill="#EF4D7C" d="M57.443,11.445c1.568-1.057,3.34-3.268,4.9-4.135c-0.655-1.54-3.789-4.188-5.877-5.086
	C46.949-1.866,37.831,7.835,44.113,16.1c1.513,1.99,3.578,3.824,5.526,5.417c1.624,1.328,4.5,3.596,5.607,5.041
	c4.262,5.563-5.506,9.354-8.978,1.343c-1.053,0.295-5.085,2.729-5.805,3.413c4.437,13.055,26.843,8.411,22.11-5.708
	c-1.899-5.666-12.031-11.364-13.38-14C48.344,9.942,49.16,8.49,50.628,8.04C53.947,7.022,56.08,10.165,57.443,11.445z"/>
<polygon fill="#EF4D7C" points="233.614,17.184 236.867,17.219 236.884,38.032 245.375,38.014 245.386,17.207 249.326,17.177 
	249.342,9.661 245.393,9.628 245.354,0 236.878,0.035 236.781,9.647 233.411,9.656 "/>
<path fill="#EF4D7C" d="M144.732,19.239c1.141-0.72,3.433-2.89,3.993-4.039c-3.366-5.543-15.15-6.213-17.167,1.404
	c-1.174,4.434,1.931,7.339,4.162,8.824c2.473,1.646,7.603,2.748,7.139,6.208c-2.597,2.753-6.854,0.092-8.378-1.697
	c-0.642,0.511-3.671,3.673-4.014,4.414c3.52,5.608,15.52,6.493,18.342-0.785c4.297-11.086-12.904-11.832-10.868-15.701
	C139.73,15.228,143.4,18.422,144.732,19.239z"/>
<path fill="#EF4D7C" d="M298.015,10.713c-4.334-1.595-5.487-1.804-8.399,0.299l0.001-1.171l-7.63,0.005l0.008,28.161l8.452,0.018
	c0.071-3.931,0.036-7.944,0.007-11.879c-0.041-5.386-0.821-10.104,5.324-8.775L298.015,10.713z"/>
<polygon fill="#EF4D7C" points="101.175,17.299 104.569,17.346 104.735,38.167 111.278,38.163 111.306,17.316 115.268,17.298 
	115.26,11.556 111.295,11.534 111.278,1.757 104.58,1.769 104.562,11.534 101.125,11.558 "/>
<polygon fill="#EF4D7C" points="119.029,38.167 125.793,38.161 125.622,11.552 118.87,11.567 "/>
<path fill="#EF4D7C" d="M121.07,0.84c-5.634,1.729-2.918,9.844,2.573,8.179C128.53,7.536,126.768-0.907,121.07,0.84z"/>
</svg>
